<svg xmlns="http://www.w3.org/2000/svg" version="1.1" viewBox="0 0 16 16">
   <style>
         .ha { fill: #000; }
         @media (prefers-color-scheme: dark) {
               .ha { fill: #fff; }
         }
         .st0{fill:#db2777}
   </style>
   <path d="M2.5 1.9V6c0 1.2-.3 1.9-.9 2 .6.1.9.7.9 1.9V14c0 .2 0 .3.1.4.1.1.1.1.3.1h.5v1.2h-1c-.4 0-.6-.1-.8-.4-.1-.3-.2-.6-.2-1.1v-3.9c0-.6-.1-1.1-.2-1.3s-.4-.4-.7-.4H.3V7.4h.2c.3 0 .6-.1.7-.4.1-.3.2-.7.2-1.4V1.7c0-1 .3-1.5 1-1.5h.9v1.2h-.5c-.1 0-.2 0-.3.1v.4z" class="st0"/>
   <path d="M6.6 4.4h1v7.1h-1V8.4H5.1v3.1H4V4.4h1v3.2h1.5l.1-3.2zm4.8 7.1-.3-1.6H9.6l-.3 1.6h-1l1.3-7.1h1.5l1.4 7.1h-1.1zM9.7 9H11l-.7-3.8L9.7 9z" class='ha'/>
   <path d="M13.5 6V1.9c0-.2 0-.3-.1-.4-.1-.1-.1-.1-.3-.1h-.5V.3h.9c.4 0 .6.1.7.4.1.3.2.6.2 1.1v3.9c0 .6.1 1.1.2 1.4.2.3.4.4.7.4h.2v1.1h-.2c-.3 0-.6.1-.7.4-.1.3-.2.7-.2 1.3v3.9c0 .5-.1.8-.2 1.1-.1.3-.4.4-.7.4h-.9v-1.2h.5c.1 0 .2 0 .3-.1.1-.1.1-.2.1-.4V9.9c0-1.2.3-1.8.9-1.9-.6-.1-.9-.8-.9-2z" class="st0"/>
</svg>