<?xml version="1.0" encoding="UTF-8" standalone="no"?>
<!-- Created with Inkscape (http://www.inkscape.org/) -->

<svg
   width="4.2333331mm"
   height="4.2333331mm"
   viewBox="0 0 4.2333331 4.2333331"
   version="1.1"
   id="svg5"
   inkscape:version="1.2.1 (0b8a7e5fb6, 2022-09-14, custom)"
   sodipodi:docname="favicon"
   xmlns:inkscape="http://www.inkscape.org/namespaces/inkscape"
   xmlns:sodipodi="http://sodipodi.sourceforge.net/DTD/sodipodi-0.dtd"
   xmlns="http://www.w3.org/2000/svg"
   xmlns:svg="http://www.w3.org/2000/svg">
  <sodipodi:namedview
     id="namedview7"
     pagecolor="#ffffff"
     bordercolor="#000000"
     borderopacity="0.25"
     inkscape:showpageshadow="2"
     inkscape:pageopacity="0.0"
     inkscape:pagecheckerboard="0"
     inkscape:deskcolor="#d1d1d1"
     inkscape:document-units="mm"
     showgrid="false"
     showguides="false"
     inkscape:zoom="17.19452"
     inkscape:cx="-4.6526451"
     inkscape:cy="5.466858"
     inkscape:window-width="1920"
     inkscape:window-height="1025"
     inkscape:window-x="0"
     inkscape:window-y="24"
     inkscape:window-maximized="1"
     inkscape:current-layer="text358" />
  <defs
     id="defs2" />
  <rect
     style="fill:#000000;fill-opacity:1;stroke-width:0.195326;stop-color:#000000"
     id="rect2127"
     width="4.3116784"
     height="4.2668004"
     x="-0.062804379"
     y="-0.011870781" />
  <g
     aria-label="{HA}"
     id="text358"
     style="font-size:3.0497px;font-family:Teko;-inkscape-font-specification:Teko;fill:#ff0000;stroke-width:0.254142;stop-color:#000000">
    <path
       d="m 0.6064083,1.0243932 v 0.7654747 q 0,0.335467 -0.23177721,0.3690137 0.23177721,0.027447 0.23177721,0.3598646 V 3.29337 q 0,0.051845 0.0213479,0.073193 0.0213479,0.021348 0.0762425,0.021348 H 0.8412352 V 3.6044394 H 0.5911598 q -0.1433359,0 -0.20432991,-0.070143 -0.0579443,-0.070143 -0.0579443,-0.2043299 V 2.5949887 q 0,-0.1707832 -0.060994,-0.2500754 -0.060994,-0.079292 -0.1921311,-0.079292 h -0.0518449 v -0.213479 h 0.0518449 q 0.1311371,0 0.1921311,-0.079292 0.060994,-0.082342 0.060994,-0.2561748 V 0.99084646 q 0,-0.274473 0.26227421,-0.274473 h 0.2500754 v 0.2165287 H 0.7039987 q -0.0548946,0 -0.0762425,0.0213479 -0.0213479,0.0182982 -0.0213479,0.0701431 z"
       style="fill:#db2777"
       id="path5182" />
    <path
       d="m 1.7042974,1.1951764 h 0.274473 V 3.1042886 H 1.7042974 V 2.2656211 H 1.2986873 V 3.1042886 H 1.0242143 V 1.1951764 h 0.274473 V 2.042993 h 0.4056101 z"
       style="fill:#ffffff"
       id="path5184" />
    <path
       d="M 2.9973697,3.1042886 2.9211272,2.6620821 H 2.5185668 L 2.4484237,3.1042886 H 2.1739507 L 2.5124674,1.1951764 H 2.9119781 L 3.2748924,3.1042886 Z M 2.5521135,2.439454 H 2.8845308 L 2.7106979,1.433053 Z"
       style="fill:#ffffff"
       id="path5186" />
    <path
       d="M 3.5676583,1.7898679 V 1.0243932 q 0,-0.0518449 -0.021348,-0.0701431 -0.021348,-0.0213479 -0.076242,-0.0213479 H 3.3328314 v -0.2165287 h 0.2500754 q 0.1433359,0 0.2012802,0.0731928 0.057944,0.0701431 0.057944,0.2012802 V 1.7166751 q 0,0.1738329 0.060994,0.2561748 0.060994,0.079292 0.1951809,0.079292 h 0.048795 v 0.213479 h -0.048795 q -0.1341868,0 -0.1951809,0.079292 -0.060994,0.079292 -0.060994,0.2500754 v 0.7349777 q 0,0.1341868 -0.057944,0.2043299 -0.057944,0.070143 -0.2012802,0.070143 H 3.3328314 V 3.3879107 h 0.1372365 q 0.054895,0 0.076242,-0.021348 0.021348,-0.021348 0.021348,-0.073193 V 2.5187462 q 0,-0.3324173 0.2317772,-0.3598646 Q 3.5676583,2.1253349 3.5676583,1.7898679 Z"
       style="fill:#db2777"
       id="path5188" />
  </g>
</svg>
